<svg width="96" height="58" viewBox="0 0 96 58" fill="none" xmlns="http://www.w3.org/2000/svg">
<circle cx="67" cy="29" r="29" fill="#27303E"/>
<circle cx="67" cy="29" r="19" fill="#364153"/>
<path d="M8.90039 34.5137L14.5879 18.0938H17.459L10.0762 38H7.75195L0.382812 18.0938H3.24023L8.90039 34.5137ZM22.4902 38H19.9609V23.207H22.4902V38ZM19.7559 19.2832C19.7559 18.873 19.8789 18.5267 20.125 18.2441C20.3802 17.9616 20.7539 17.8203 21.2461 17.8203C21.7383 17.8203 22.112 17.9616 22.3672 18.2441C22.6224 18.5267 22.75 18.873 22.75 19.2832C22.75 19.6934 22.6224 20.0352 22.3672 20.3086C22.112 20.582 21.7383 20.7188 21.2461 20.7188C20.7539 20.7188 20.3802 20.582 20.125 20.3086C19.8789 20.0352 19.7559 19.6934 19.7559 19.2832ZM35.1641 34.0762C35.1641 33.3926 34.9043 32.8639 34.3848 32.4902C33.8743 32.1074 32.9766 31.7793 31.6914 31.5059C30.4154 31.2324 29.3991 30.9043 28.6426 30.5215C27.8952 30.1387 27.3392 29.6829 26.9746 29.1543C26.6191 28.6257 26.4414 27.9967 26.4414 27.2676C26.4414 26.0553 26.9518 25.0299 27.9727 24.1914C29.0026 23.3529 30.3151 22.9336 31.9102 22.9336C33.5872 22.9336 34.9453 23.3665 35.9844 24.2324C37.0326 25.0983 37.5566 26.2057 37.5566 27.5547H35.0137C35.0137 26.862 34.7174 26.265 34.125 25.7637C33.5417 25.2624 32.8034 25.0117 31.9102 25.0117C30.9896 25.0117 30.2695 25.2122 29.75 25.6133C29.2305 26.0143 28.9707 26.5384 28.9707 27.1855C28.9707 27.7962 29.2122 28.2565 29.6953 28.5664C30.1784 28.8763 31.0488 29.1725 32.3066 29.4551C33.5736 29.7376 34.599 30.0749 35.3828 30.4668C36.1667 30.8587 36.7454 31.3327 37.1191 31.8887C37.502 32.4355 37.6934 33.1055 37.6934 33.8984C37.6934 35.2201 37.1647 36.2819 36.1074 37.084C35.0501 37.877 33.6784 38.2734 31.9922 38.2734C30.8073 38.2734 29.7591 38.0638 28.8477 37.6445C27.9362 37.2253 27.2207 36.6419 26.7012 35.8945C26.1908 35.138 25.9355 34.3223 25.9355 33.4473H28.4648C28.5104 34.2949 28.8477 34.9694 29.4766 35.4707C30.1146 35.9629 30.9531 36.209 31.9922 36.209C32.9492 36.209 33.7148 36.0176 34.2891 35.6348C34.8724 35.2428 35.1641 34.7233 35.1641 34.0762ZM46.2109 18.0938L51.3242 32.5312L56.4102 18.0938H61.7969V38H57.6816V32.5586L58.0918 23.166L52.7188 38H49.9023L44.543 23.1797L44.9531 32.5586V38H40.8516V18.0938H46.2109ZM73.6914 38C73.5091 37.6445 73.377 37.2025 73.2949 36.6738C72.3379 37.7402 71.0938 38.2734 69.5625 38.2734C68.1133 38.2734 66.9102 37.8542 65.9531 37.0156C65.0052 36.1771 64.5312 35.1198 64.5312 33.8438C64.5312 32.276 65.11 31.0729 66.2676 30.2344C67.4342 29.3958 69.1159 28.972 71.3125 28.9629H73.1309V28.1152C73.1309 27.4316 72.9531 26.8848 72.5977 26.4746C72.2513 26.0645 71.6999 25.8594 70.9434 25.8594C70.278 25.8594 69.7539 26.0189 69.3711 26.3379C68.9974 26.6569 68.8105 27.0944 68.8105 27.6504H64.8594C64.8594 26.7936 65.1237 26.0007 65.6523 25.2715C66.181 24.5423 66.9284 23.9727 67.8945 23.5625C68.8607 23.1432 69.9453 22.9336 71.1484 22.9336C72.9714 22.9336 74.416 23.3939 75.4824 24.3145C76.5579 25.2259 77.0957 26.5111 77.0957 28.1699V34.582C77.1048 35.9857 77.3008 37.0475 77.6836 37.7676V38H73.6914ZM70.4238 35.252C71.0072 35.252 71.5449 35.1243 72.0371 34.8691C72.5293 34.6048 72.8939 34.2539 73.1309 33.8164V31.2734H71.6543C69.6764 31.2734 68.6237 31.957 68.4961 33.3242L68.4824 33.5566C68.4824 34.0488 68.6556 34.4544 69.002 34.7734C69.3483 35.0924 69.8223 35.252 70.4238 35.252ZM83.7676 23.207L83.8906 24.916C84.9479 23.5944 86.3652 22.9336 88.1426 22.9336C89.7103 22.9336 90.877 23.3939 91.6426 24.3145C92.4082 25.235 92.8001 26.6113 92.8184 28.4434V38H88.8672V28.5391C88.8672 27.7005 88.6849 27.0944 88.3203 26.7207C87.9557 26.3379 87.3496 26.1465 86.502 26.1465C85.39 26.1465 84.556 26.6204 84 27.5684V38H80.0488V23.207H83.7676Z" fill="white"/>
</svg>
